<svg width="180" height="40" viewBox="0 0 180 40" fill="none" xmlns="http://www.w3.org/2000/svg">
<path d="M24.6523 5.72894L9.85081 14.2032C9.30776 14.5126 9.30144 15.2956 9.8445 15.6177L13.2291 17.6131C13.6964 17.8846 14.2711 17.8909 14.7383 17.6257L25.5237 11.5384C25.9973 11.2732 26.5783 11.2795 27.0455 11.5573L29.0283 12.7445C29.483 13.016 29.7608 13.5086 29.7608 14.039V26.2073C29.7608 26.7503 29.4704 27.2492 29.0031 27.5207L18.4387 33.5764C17.9777 33.8417 17.4094 33.8417 16.9421 33.5764L6.3904 27.5965C5.9168 27.325 5.62633 26.8261 5.62633 26.2831V14.0327C5.62633 13.4896 5.9168 12.9845 6.3904 12.7192L23.3325 3.08312L18.3692 0.222591C17.8578 -0.0741969 17.2263 -0.0741969 16.7148 0.222591L0.820901 9.39774C0.315731 9.68822 0 10.2313 0 10.8248V29.1688C0 29.7624 0.315731 30.3118 0.827216 30.6086L16.7022 39.7774C17.22 40.0742 17.8578 40.0742 18.3756 39.7774L34.1811 30.6528C34.7367 30.3307 35.0777 29.7372 35.0777 29.0994V10.8375C35.0777 10.2439 34.762 9.70084 34.2505 9.40406L27.917 5.74789C26.9066 5.16694 25.6626 5.16063 24.6523 5.74789V5.72894Z" fill="url(#paint0_linear_1387_1060)"/>
<path fill-rule="evenodd" clip-rule="evenodd" d="M24.7661 14.8346L17.498 19.1538C17.0307 19.4317 16.7402 19.9369 16.7402 20.4862V25.0462C17.4833 24.5354 18.2695 24.0759 19.1085 23.6691C19.9673 23.246 20.744 22.7661 21.4007 22.2041C21.8764 21.797 22.3224 21.3633 22.6832 20.8696L21.3626 20.1077C21.1795 20.0003 21.1795 19.7351 21.3626 19.6278V19.6341L24.8167 17.6387C24.9998 17.5313 25.2335 17.6639 25.2335 17.8786V21.8631C25.2335 22.0778 25.0061 22.2104 24.8167 22.1031L23.2619 21.2036C22.3451 22.4451 21.9058 23.9462 21.6722 25.5256C21.5026 26.7872 21.21 27.9918 20.8029 29.1539L26.3195 26.0242C26.8057 25.7463 27.1025 25.2348 27.1025 24.6791V16.1733C27.1025 14.9736 25.7954 14.2284 24.7661 14.841V14.8346Z" fill="#0ACD95"/>
<path d="M60.6587 15.4595C60.375 15.7117 59.9525 15.7306 59.6625 15.491C58.2186 14.3246 56.0999 13.6437 54.3155 13.6437C50.6647 13.6437 48.0984 16.5439 48.0984 20.0431C48.0984 23.3091 50.3242 26.4174 54.5993 26.4174C55.7784 26.4174 57.0962 26.1841 58.1807 25.7743C59.0193 25.459 59.5742 24.6646 59.5742 23.7756V22.439C59.5742 22.004 59.2211 21.6509 58.786 21.6509H55.0469C54.6182 21.6509 54.2651 21.2978 54.2651 20.8691V19.8414C54.2651 19.4127 54.6182 19.0596 55.0469 19.0596H61.0434C61.6928 19.0596 62.2225 19.5892 62.2225 20.2386V23.5171C62.2225 25.6167 60.8983 27.4829 58.9248 28.1891C57.4556 28.7124 55.8919 29.0087 54.429 29.0087C49.0631 29.0087 45.0781 24.9925 45.0781 20.0179C45.0781 15.0434 49.1199 11.0524 54.3029 11.0524C56.7116 11.0524 59.2589 11.9224 61.4217 13.5113C61.8252 13.8076 61.8568 14.4003 61.4847 14.7344L60.6713 15.4658L60.6587 15.4595Z" fill="#39435A"/>
<path d="M66.5485 18.0762C66.3909 17.7043 66.5422 17.2629 66.9016 17.0801C68.1375 16.4622 70.0543 15.8191 72.2045 15.8191C75.0293 15.8191 77.8793 16.7522 77.8793 19.4948V26.487C77.8793 26.8779 77.8982 27.3634 77.9739 27.8425C78.0496 28.3154 77.6838 28.7441 77.2046 28.7441H76.1138C75.7418 28.7441 75.4202 28.4856 75.3445 28.1199C75.3445 28.1199 75.3445 28.1073 75.3445 28.101C75.2689 27.7101 74.8149 27.5273 74.4933 27.7543C73.5664 28.4163 72.318 28.9963 70.4453 28.9963C67.4628 28.9963 65.5208 27.2373 65.5208 24.6964C65.5208 22.4708 67.57 20.6802 71.2965 20.6802C72.6711 20.6802 74.3294 20.9891 75.2058 21.6385V20.264C75.2058 18.7383 73.8565 18.0889 72.0721 18.0889C70.5525 18.0889 68.9698 18.6437 67.9294 19.1796C67.5259 19.3877 67.0277 19.2111 66.8512 18.795L66.5422 18.0636L66.5485 18.0762ZM75.2121 24.4505C75.2121 23.9461 74.9032 23.5048 74.4429 23.3093C73.7619 23.0256 72.8098 22.7923 71.7442 22.7923C69.1274 22.7923 68.2195 23.6246 68.2195 24.709C68.2195 25.8754 69.2283 26.7833 71.0191 26.7833C72.8098 26.7833 74.0898 25.9511 74.7644 25.4088C75.0545 25.1756 75.2184 24.8288 75.2184 24.4568L75.2121 24.4505Z" fill="#39435A"/>
<path d="M82.9787 10.8705C83.9371 10.8705 84.6875 11.5955 84.6875 12.4278C84.6875 13.26 83.9371 13.9536 82.9787 13.9536C82.0203 13.9536 81.2952 13.279 81.2952 12.4278C81.2952 11.5766 82.0203 10.8705 82.9787 10.8705Z" fill="#39435A"/>
<path d="M83.5398 16.4948H82.4364C82.0046 16.4948 81.6545 16.8448 81.6545 17.2766V28.2282C81.6545 28.6599 82.0046 29.01 82.4364 29.01H83.5398C83.9717 29.01 84.3217 28.6599 84.3217 28.2282V17.2766C84.3217 16.8448 83.9717 16.4948 83.5398 16.4948Z" fill="#39435A"/>
<path d="M94.6955 16.0777C97.3879 16.0777 99.5129 17.944 99.5129 20.5353V28.2209C99.5129 28.656 99.1598 29.0091 98.7247 29.0091H97.6086C97.1736 29.0091 96.8205 28.656 96.8205 28.2209V20.5353C96.8205 19.3941 95.7612 18.4357 94.2542 18.4357C93.0183 18.4357 92.0788 19.0725 91.36 19.8228C91.0195 20.1822 90.8366 20.6614 90.8366 21.1532V28.2146C90.8366 28.6497 90.4835 29.0027 90.0485 29.0027H88.9513C88.5163 29.0027 88.1632 28.6497 88.1632 28.2146V19.9363C88.1632 19.1041 88.119 18.2529 87.9992 17.3765C87.9362 16.9037 88.3208 16.4875 88.7937 16.4875H89.6449C90.0359 16.4875 90.3574 16.7713 90.4205 17.1559C90.4205 17.1559 90.4205 17.1685 90.4205 17.1748C90.4899 17.6035 91.0069 17.7737 91.3159 17.4711C92.1229 16.6893 93.1507 16.0714 94.6892 16.0714L94.6955 16.0777Z" fill="#39435A"/>
<path d="M105.142 12.0928C105.489 12.0928 105.792 12.3198 105.892 12.6476L109.505 24.526H109.663L113.503 12.635C113.61 12.3134 113.907 12.0928 114.247 12.0928H115.18C115.521 12.0928 115.823 12.3134 115.924 12.635L119.764 24.526H119.922L123.535 12.6476C123.636 12.3198 123.938 12.0928 124.285 12.0928H125.666C126.196 12.0928 126.574 12.6098 126.41 13.1142L121.498 28.4666C121.397 28.7881 121.095 29.0088 120.754 29.0088H118.995C118.655 29.0088 118.358 28.7881 118.251 28.4666L114.72 17.6852H114.562L111.031 28.4666C110.924 28.7881 110.628 29.0088 110.287 29.0088H108.528C108.188 29.0088 107.885 28.7881 107.784 28.4666L102.872 13.1142C102.708 12.6098 103.087 12.0928 103.616 12.0928H105.148H105.142Z" fill="#39435A"/>
<path d="M131.435 10.8699C132.394 10.8699 133.144 11.5949 133.144 12.4272C133.144 13.2594 132.394 13.953 131.435 13.953C130.477 13.953 129.752 13.2783 129.752 12.4272C129.752 11.576 130.477 10.8699 131.435 10.8699Z" fill="#39435A"/>
<path d="M132.009 16.4946H130.893C130.465 16.4946 130.118 16.8418 130.118 17.2701V28.2343C130.118 28.6626 130.465 29.0098 130.893 29.0098H132.009C132.438 29.0098 132.785 28.6626 132.785 28.2343V17.2701C132.785 16.8418 132.438 16.4946 132.009 16.4946Z" fill="#39435A"/>
<path d="M151.311 13.3658L143.706 22.7412C145.049 24.4057 146.399 26.0639 147.742 27.7284C148.158 28.2391 147.792 29.0083 147.13 29.0083H146.102C145.863 29.0083 145.642 28.9011 145.491 28.7182L142.181 24.6327L138.87 28.7182C138.719 28.9011 138.498 29.0083 138.259 29.0083H137.231C136.569 29.0083 136.209 28.2454 136.619 27.7284C137.962 26.0639 139.305 24.4057 140.648 22.7412C139.305 21.083 137.962 19.4248 136.625 17.773C136.209 17.2623 136.575 16.4931 137.237 16.4931H138.265C138.498 16.4931 138.725 16.6002 138.877 16.7831C139.98 18.1449 141.077 19.5005 142.181 20.8624C144.476 18.0315 146.765 15.2069 149.06 12.376C149.211 12.1931 149.432 12.0859 149.671 12.0859H150.699C151.361 12.0859 151.727 12.8488 151.311 13.3658Z" fill="#39435A"/>
<path d="M154.804 25.4038C155.958 25.4038 156.86 26.255 156.86 27.2827C156.86 28.3104 155.958 29.13 154.804 29.13C153.65 29.13 152.774 28.3104 152.774 27.2827C152.774 26.255 153.65 25.4038 154.804 25.4038Z" fill="black"/>
<path d="M161.683 18.1971C161.525 17.8251 161.677 17.3838 162.036 17.2009C163.272 16.583 165.189 15.9399 167.339 15.9399C170.164 15.9399 173.014 16.8731 173.014 19.6157V26.6078C173.014 26.9987 173.033 27.4842 173.108 27.9634C173.184 28.4425 172.818 28.865 172.339 28.865H171.248C170.876 28.865 170.555 28.6065 170.479 28.2408C170.479 28.2408 170.479 28.2282 170.479 28.2219C170.403 27.831 169.949 27.6481 169.628 27.8751C168.701 28.5371 167.452 29.1172 165.58 29.1172C162.597 29.1172 160.655 27.3581 160.655 24.8172C160.655 22.5916 162.705 20.801 166.431 20.801C167.806 20.801 169.464 21.11 170.34 21.7594V20.3849C170.34 18.8591 168.991 18.2097 167.207 18.2097C165.687 18.2097 164.104 18.7645 163.064 19.3005C162.66 19.5085 162.162 19.332 161.986 18.9159L161.677 18.1845L161.683 18.1971ZM170.347 24.5713C170.347 24.067 170.038 23.6256 169.577 23.4302C168.896 23.1464 167.944 22.9132 166.879 22.9132C164.262 22.9132 163.354 23.7454 163.354 24.8298C163.354 25.9962 164.363 26.9042 166.154 26.9042C167.944 26.9042 169.224 26.0719 169.899 25.5297C170.189 25.2964 170.353 24.9496 170.353 24.5776L170.347 24.5713Z" fill="#39435A"/>
<path d="M178.115 10.9893C179.073 10.9893 179.823 11.7143 179.823 12.5466C179.823 13.3788 179.073 14.0724 178.115 14.0724C177.156 14.0724 176.431 13.3977 176.431 12.5466C176.431 11.6954 177.156 10.9893 178.115 10.9893Z" fill="#39435A"/>
<path d="M178.683 16.6135H177.579C177.147 16.6135 176.797 16.9636 176.797 17.3953V28.3469C176.797 28.7787 177.147 29.1287 177.579 29.1287H178.683C179.114 29.1287 179.465 28.7787 179.465 28.3469V17.3953C179.465 16.9636 179.114 16.6135 178.683 16.6135Z" fill="#39435A"/>
<path d="M60.6582 15.4589C60.3745 15.7111 59.952 15.73 59.662 15.4904C58.2181 14.324 56.0995 13.6431 54.315 13.6431C50.6642 13.6431 48.0979 16.5433 48.0979 20.0425C48.0979 23.3085 50.3237 26.4168 54.5988 26.4168C55.7779 26.4168 57.0957 26.1835 58.1802 25.7737C59.0188 25.4584 59.5737 24.664 59.5737 23.775V22.4384C59.5737 22.0034 59.2206 21.6503 58.7855 21.6503H55.0465C54.6177 21.6503 54.2646 21.2972 54.2646 20.8685V19.8408C54.2646 19.412 54.6177 19.059 55.0465 19.059H61.0429C61.6923 19.059 62.222 19.5886 62.222 20.238V23.5165C62.222 25.6161 60.8979 27.4823 58.9243 28.1885C57.4551 28.7118 55.8914 29.0081 54.4285 29.0081C49.0626 29.0081 45.0776 24.9919 45.0776 20.0173C45.0776 15.0428 49.1194 11.0518 54.3024 11.0518C56.7111 11.0518 59.2585 11.9218 61.4212 13.5107C61.8247 13.807 61.8563 14.3997 61.4843 14.7338L60.6709 15.4652L60.6582 15.4589Z" fill="url(#paint1_linear_1387_1060)"/>
<path d="M66.548 18.0758C66.3904 17.7038 66.5417 17.2624 66.9011 17.0796C68.137 16.4617 70.0538 15.8186 72.204 15.8186C75.0288 15.8186 77.8788 16.7517 77.8788 19.4944V26.4865C77.8788 26.8774 77.8977 27.3629 77.9734 27.842C78.0491 28.3149 77.6834 28.7436 77.2041 28.7436H76.1133C75.7413 28.7436 75.4197 28.4851 75.3441 28.1195C75.3441 28.1195 75.3441 28.1068 75.3441 28.1005C75.2684 27.7096 74.8144 27.5268 74.4928 27.7538C73.5659 28.4158 72.3175 28.9958 70.4448 28.9958C67.4623 28.9958 65.5203 27.2368 65.5203 24.6959C65.5203 22.4703 67.5695 20.6797 71.296 20.6797C72.6706 20.6797 74.3289 20.9886 75.2053 21.638V20.2636C75.2053 18.7378 73.856 18.0884 72.0716 18.0884C70.552 18.0884 68.9693 18.6432 67.9289 19.1791C67.5254 19.3872 67.0273 19.2106 66.8507 18.7945L66.5417 18.0631L66.548 18.0758ZM75.2116 24.45C75.2116 23.9456 74.9027 23.5043 74.4424 23.3088C73.7614 23.0251 72.8093 22.7918 71.7437 22.7918C69.1269 22.7918 68.219 23.6241 68.219 24.7085C68.219 25.8749 69.2278 26.7828 71.0186 26.7828C72.8093 26.7828 74.0893 25.9506 74.764 25.4083C75.054 25.1751 75.2179 24.8283 75.2179 24.4563L75.2116 24.45Z" fill="url(#paint2_linear_1387_1060)"/>
<path d="M82.9787 10.8699C83.9371 10.8699 84.6875 11.5949 84.6875 12.4272C84.6875 13.2594 83.9371 13.953 82.9787 13.953C82.0203 13.953 81.2952 13.2783 81.2952 12.4272C81.2952 11.576 82.0203 10.8699 82.9787 10.8699Z" fill="url(#paint3_linear_1387_1060)"/>
<path d="M83.5398 16.4946H82.4364C82.0046 16.4946 81.6545 16.8447 81.6545 17.2764V28.228C81.6545 28.6598 82.0046 29.0098 82.4364 29.0098H83.5398C83.9717 29.0098 84.3217 28.6598 84.3217 28.228V17.2764C84.3217 16.8447 83.9717 16.4946 83.5398 16.4946Z" fill="url(#paint4_linear_1387_1060)"/>
<path d="M94.6941 16.0764C97.3865 16.0764 99.5114 17.9426 99.5114 20.5339V28.2196C99.5114 28.6546 99.1583 29.0077 98.7232 29.0077H97.6072C97.1721 29.0077 96.819 28.6546 96.819 28.2196V20.5339C96.819 19.3927 95.7597 18.4344 94.2527 18.4344C93.0168 18.4344 92.0773 19.0712 91.3585 19.8215C91.018 20.1809 90.8352 20.66 90.8352 21.1518V28.2133C90.8352 28.6483 90.4821 29.0014 90.047 29.0014H88.9499C88.5148 29.0014 88.1617 28.6483 88.1617 28.2133V19.935C88.1617 19.1027 88.1176 18.2516 87.9978 17.3752C87.9347 16.9023 88.3193 16.4862 88.7922 16.4862H89.6435C90.0344 16.4862 90.356 16.7699 90.419 17.1545C90.419 17.1545 90.419 17.1671 90.419 17.1734C90.4884 17.6022 91.0054 17.7724 91.3144 17.4698C92.1215 16.6879 93.1493 16.0701 94.6878 16.0701L94.6941 16.0764Z" fill="url(#paint5_linear_1387_1060)"/>
<path d="M60.6582 15.4589C60.3745 15.7111 59.952 15.73 59.662 15.4904C58.2181 14.324 56.0995 13.6431 54.315 13.6431C50.6642 13.6431 48.0979 16.5433 48.0979 20.0425C48.0979 23.3085 50.3237 26.4168 54.5988 26.4168C55.7779 26.4168 57.0957 26.1835 58.1802 25.7737C59.0188 25.4584 59.5737 24.664 59.5737 23.775V22.4384C59.5737 22.0034 59.2206 21.6503 58.7855 21.6503H55.0465C54.6177 21.6503 54.2646 21.2972 54.2646 20.8685V19.8408C54.2646 19.412 54.6177 19.059 55.0465 19.059H61.0429C61.6923 19.059 62.222 19.5886 62.222 20.238V23.5165C62.222 25.6161 60.8979 27.4823 58.9243 28.1885C57.4551 28.7118 55.8914 29.0081 54.4285 29.0081C49.0626 29.0081 45.0776 24.9919 45.0776 20.0173C45.0776 15.0428 49.1194 11.0518 54.3024 11.0518C56.7111 11.0518 59.2585 11.9218 61.4212 13.5107C61.8247 13.807 61.8563 14.3997 61.4843 14.7338L60.6709 15.4652L60.6582 15.4589Z" fill="url(#paint6_linear_1387_1060)"/>
<path d="M66.548 18.0758C66.3904 17.7038 66.5417 17.2624 66.9011 17.0796C68.137 16.4617 70.0538 15.8186 72.204 15.8186C75.0288 15.8186 77.8788 16.7517 77.8788 19.4944V26.4865C77.8788 26.8774 77.8977 27.3629 77.9734 27.842C78.0491 28.3149 77.6834 28.7436 77.2041 28.7436H76.1133C75.7413 28.7436 75.4197 28.4851 75.3441 28.1195C75.3441 28.1195 75.3441 28.1068 75.3441 28.1005C75.2684 27.7096 74.8144 27.5268 74.4928 27.7538C73.5659 28.4158 72.3175 28.9958 70.4448 28.9958C67.4623 28.9958 65.5203 27.2368 65.5203 24.6959C65.5203 22.4703 67.5695 20.6797 71.296 20.6797C72.6706 20.6797 74.3289 20.9886 75.2053 21.638V20.2636C75.2053 18.7378 73.856 18.0884 72.0716 18.0884C70.552 18.0884 68.9693 18.6432 67.9289 19.1791C67.5254 19.3872 67.0273 19.2106 66.8507 18.7945L66.5417 18.0631L66.548 18.0758ZM75.2116 24.45C75.2116 23.9456 74.9027 23.5043 74.4424 23.3088C73.7614 23.0251 72.8093 22.7918 71.7437 22.7918C69.1269 22.7918 68.219 23.6241 68.219 24.7085C68.219 25.8749 69.2278 26.7828 71.0186 26.7828C72.8093 26.7828 74.0893 25.9506 74.764 25.4083C75.054 25.1751 75.2179 24.8283 75.2179 24.4563L75.2116 24.45Z" fill="url(#paint7_linear_1387_1060)"/>
<path d="M82.9787 10.8699C83.9371 10.8699 84.6875 11.5949 84.6875 12.4272C84.6875 13.2594 83.9371 13.953 82.9787 13.953C82.0203 13.953 81.2952 13.2783 81.2952 12.4272C81.2952 11.576 82.0203 10.8699 82.9787 10.8699Z" fill="url(#paint8_linear_1387_1060)"/>
<path d="M83.5398 16.4946H82.4364C82.0046 16.4946 81.6545 16.8447 81.6545 17.2764V28.228C81.6545 28.6598 82.0046 29.0098 82.4364 29.0098H83.5398C83.9717 29.0098 84.3217 28.6598 84.3217 28.228V17.2764C84.3217 16.8447 83.9717 16.4946 83.5398 16.4946Z" fill="url(#paint9_linear_1387_1060)"/>
<path d="M94.6941 16.0764C97.3865 16.0764 99.5114 17.9426 99.5114 20.5339V28.2196C99.5114 28.6546 99.1583 29.0077 98.7232 29.0077H97.6072C97.1721 29.0077 96.819 28.6546 96.819 28.2196V20.5339C96.819 19.3927 95.7597 18.4344 94.2527 18.4344C93.0168 18.4344 92.0773 19.0712 91.3585 19.8215C91.018 20.1809 90.8352 20.66 90.8352 21.1518V28.2133C90.8352 28.6483 90.4821 29.0014 90.047 29.0014H88.9499C88.5148 29.0014 88.1617 28.6483 88.1617 28.2133V19.935C88.1617 19.1027 88.1176 18.2516 87.9978 17.3752C87.9347 16.9023 88.3193 16.4862 88.7922 16.4862H89.6435C90.0344 16.4862 90.356 16.7699 90.419 17.1545C90.419 17.1545 90.419 17.1671 90.419 17.1734C90.4884 17.6022 91.0054 17.7724 91.3144 17.4698C92.1215 16.6879 93.1493 16.0701 94.6878 16.0701L94.6941 16.0764Z" fill="url(#paint10_linear_1387_1060)"/>
<path d="M60.6582 15.4589C60.3745 15.7111 59.952 15.73 59.662 15.4904C58.2181 14.324 56.0995 13.6431 54.315 13.6431C50.6642 13.6431 48.0979 16.5433 48.0979 20.0425C48.0979 23.3085 50.3237 26.4168 54.5988 26.4168C55.7779 26.4168 57.0957 26.1835 58.1802 25.7737C59.0188 25.4584 59.5737 24.664 59.5737 23.775V22.4384C59.5737 22.0034 59.2206 21.6503 58.7855 21.6503H55.0465C54.6177 21.6503 54.2646 21.2972 54.2646 20.8685V19.8408C54.2646 19.412 54.6177 19.059 55.0465 19.059H61.0429C61.6923 19.059 62.222 19.5886 62.222 20.238V23.5165C62.222 25.6161 60.8979 27.4823 58.9243 28.1885C57.4551 28.7118 55.8914 29.0081 54.4285 29.0081C49.0626 29.0081 45.0776 24.9919 45.0776 20.0173C45.0776 15.0428 49.1194 11.0518 54.3024 11.0518C56.7111 11.0518 59.2585 11.9218 61.4212 13.5107C61.8247 13.807 61.8563 14.3997 61.4843 14.7338L60.6709 15.4652L60.6582 15.4589Z" fill="url(#paint11_linear_1387_1060)"/>
<path d="M66.548 18.0758C66.3904 17.7038 66.5417 17.2624 66.9011 17.0796C68.137 16.4617 70.0538 15.8186 72.204 15.8186C75.0288 15.8186 77.8788 16.7517 77.8788 19.4944V26.4865C77.8788 26.8774 77.8977 27.3629 77.9734 27.842C78.0491 28.3149 77.6834 28.7436 77.2041 28.7436H76.1133C75.7413 28.7436 75.4197 28.4851 75.3441 28.1195C75.3441 28.1195 75.3441 28.1068 75.3441 28.1005C75.2684 27.7096 74.8144 27.5268 74.4928 27.7538C73.5659 28.4158 72.3175 28.9958 70.4448 28.9958C67.4623 28.9958 65.5203 27.2368 65.5203 24.6959C65.5203 22.4703 67.5695 20.6797 71.296 20.6797C72.6706 20.6797 74.3289 20.9886 75.2053 21.638V20.2636C75.2053 18.7378 73.856 18.0884 72.0716 18.0884C70.552 18.0884 68.9693 18.6432 67.9289 19.1791C67.5254 19.3872 67.0273 19.2106 66.8507 18.7945L66.5417 18.0631L66.548 18.0758ZM75.2116 24.45C75.2116 23.9456 74.9027 23.5043 74.4424 23.3088C73.7614 23.0251 72.8093 22.7918 71.7437 22.7918C69.1269 22.7918 68.219 23.6241 68.219 24.7085C68.219 25.8749 69.2278 26.7828 71.0186 26.7828C72.8093 26.7828 74.0893 25.9506 74.764 25.4083C75.054 25.1751 75.2179 24.8283 75.2179 24.4563L75.2116 24.45Z" fill="url(#paint12_linear_1387_1060)"/>
<path d="M82.9787 10.8699C83.9371 10.8699 84.6875 11.5949 84.6875 12.4272C84.6875 13.2594 83.9371 13.953 82.9787 13.953C82.0203 13.953 81.2952 13.2783 81.2952 12.4272C81.2952 11.576 82.0203 10.8699 82.9787 10.8699Z" fill="url(#paint13_linear_1387_1060)"/>
<path d="M83.5398 16.4946H82.4364C82.0046 16.4946 81.6545 16.8447 81.6545 17.2764V28.228C81.6545 28.6598 82.0046 29.0098 82.4364 29.0098H83.5398C83.9717 29.0098 84.3217 28.6598 84.3217 28.228V17.2764C84.3217 16.8447 83.9717 16.4946 83.5398 16.4946Z" fill="url(#paint14_linear_1387_1060)"/>
<path d="M94.6941 16.0764C97.3865 16.0764 99.5114 17.9426 99.5114 20.5339V28.2196C99.5114 28.6546 99.1583 29.0077 98.7232 29.0077H97.6072C97.1721 29.0077 96.819 28.6546 96.819 28.2196V20.5339C96.819 19.3927 95.7597 18.4344 94.2527 18.4344C93.0168 18.4344 92.0773 19.0712 91.3585 19.8215C91.018 20.1809 90.8352 20.66 90.8352 21.1518V28.2133C90.8352 28.6483 90.4821 29.0014 90.047 29.0014H88.9499C88.5148 29.0014 88.1617 28.6483 88.1617 28.2133V19.935C88.1617 19.1027 88.1176 18.2516 87.9978 17.3752C87.9347 16.9023 88.3193 16.4862 88.7922 16.4862H89.6435C90.0344 16.4862 90.356 16.7699 90.419 17.1545C90.419 17.1545 90.419 17.1671 90.419 17.1734C90.4884 17.6022 91.0054 17.7724 91.3144 17.4698C92.1215 16.6879 93.1493 16.0701 94.6878 16.0701L94.6941 16.0764Z" fill="url(#paint15_linear_1387_1060)"/>
<path d="M105.142 12.0927C105.489 12.0927 105.792 12.3196 105.892 12.6475L109.505 24.5259H109.663L113.503 12.6349C113.61 12.3133 113.907 12.0927 114.247 12.0927H115.18C115.521 12.0927 115.823 12.3133 115.924 12.6349L119.764 24.5259H119.922L123.535 12.6475C123.636 12.3196 123.938 12.0927 124.285 12.0927H125.666C126.196 12.0927 126.574 12.6097 126.41 13.114L121.498 28.4665C121.397 28.788 121.095 29.0087 120.754 29.0087H118.995C118.655 29.0087 118.358 28.788 118.251 28.4665L114.72 17.6851H114.562L111.031 28.4665C110.924 28.788 110.628 29.0087 110.287 29.0087H108.528C108.188 29.0087 107.885 28.788 107.784 28.4665L102.872 13.114C102.708 12.6097 103.087 12.0927 103.616 12.0927H105.148H105.142Z" fill="url(#paint16_linear_1387_1060)"/>
<path d="M131.435 10.8702C132.394 10.8702 133.144 11.5953 133.144 12.4275C133.144 13.2598 132.394 13.9533 131.435 13.9533C130.477 13.9533 129.752 13.2787 129.752 12.4275C129.752 11.5764 130.477 10.8702 131.435 10.8702Z" fill="url(#paint17_linear_1387_1060)"/>
<path d="M132.009 16.4945H130.893C130.465 16.4945 130.117 16.8417 130.117 17.27V28.2342C130.117 28.6625 130.465 29.0097 130.893 29.0097H132.009C132.437 29.0097 132.785 28.6625 132.785 28.2342V17.27C132.785 16.8417 132.437 16.4945 132.009 16.4945Z" fill="url(#paint18_linear_1387_1060)"/>
<path d="M151.31 13.3662L143.706 22.7416C145.049 24.4061 146.398 26.0643 147.741 27.7287C148.157 28.2394 147.792 29.0086 147.13 29.0086H146.102C145.862 29.0086 145.641 28.9015 145.49 28.7186L142.18 24.633L138.869 28.7186C138.718 28.9015 138.497 29.0086 138.258 29.0086H137.23C136.568 29.0086 136.209 28.2457 136.618 27.7287C137.962 26.0643 139.305 24.4061 140.648 22.7416C139.305 21.0834 137.961 19.4252 136.625 17.7733C136.209 17.2626 136.574 16.4934 137.236 16.4934H138.264C138.497 16.4934 138.724 16.6006 138.876 16.7834C139.979 18.1453 141.076 19.5009 142.18 20.8627C144.475 18.0318 146.764 15.2072 149.059 12.3763C149.21 12.1935 149.431 12.0863 149.671 12.0863H150.698C151.36 12.0863 151.726 12.8492 151.31 13.3662Z" fill="url(#paint19_linear_1387_1060)"/>
<path d="M105.142 12.0927C105.489 12.0927 105.792 12.3196 105.892 12.6475L109.505 24.5259H109.663L113.503 12.6349C113.61 12.3133 113.907 12.0927 114.247 12.0927H115.18C115.521 12.0927 115.823 12.3133 115.924 12.6349L119.764 24.5259H119.922L123.535 12.6475C123.636 12.3196 123.938 12.0927 124.285 12.0927H125.666C126.196 12.0927 126.574 12.6097 126.41 13.114L121.498 28.4665C121.397 28.788 121.095 29.0087 120.754 29.0087H118.995C118.655 29.0087 118.358 28.788 118.251 28.4665L114.72 17.6851H114.562L111.031 28.4665C110.924 28.788 110.628 29.0087 110.287 29.0087H108.528C108.188 29.0087 107.885 28.788 107.784 28.4665L102.872 13.114C102.708 12.6097 103.087 12.0927 103.616 12.0927H105.148H105.142Z" fill="url(#paint20_linear_1387_1060)"/>
<path d="M131.435 10.8702C132.394 10.8702 133.144 11.5953 133.144 12.4275C133.144 13.2598 132.394 13.9533 131.435 13.9533C130.477 13.9533 129.752 13.2787 129.752 12.4275C129.752 11.5764 130.477 10.8702 131.435 10.8702Z" fill="url(#paint21_linear_1387_1060)"/>
<path d="M132.009 16.4945H130.893C130.465 16.4945 130.117 16.8417 130.117 17.27V28.2342C130.117 28.6625 130.465 29.0097 130.893 29.0097H132.009C132.437 29.0097 132.785 28.6625 132.785 28.2342V17.27C132.785 16.8417 132.437 16.4945 132.009 16.4945Z" fill="url(#paint22_linear_1387_1060)"/>
<path d="M151.31 13.3662L143.706 22.7416C145.049 24.4061 146.398 26.0643 147.741 27.7287C148.157 28.2394 147.792 29.0086 147.13 29.0086H146.102C145.862 29.0086 145.641 28.9015 145.49 28.7186L142.18 24.633L138.869 28.7186C138.718 28.9015 138.497 29.0086 138.258 29.0086H137.23C136.568 29.0086 136.209 28.2457 136.618 27.7287C137.962 26.0643 139.305 24.4061 140.648 22.7416C139.305 21.0834 137.961 19.4252 136.625 17.7733C136.209 17.2626 136.574 16.4934 137.236 16.4934H138.264C138.497 16.4934 138.724 16.6006 138.876 16.7834C139.979 18.1453 141.076 19.5009 142.18 20.8627C144.475 18.0318 146.764 15.2072 149.059 12.3763C149.21 12.1935 149.431 12.0863 149.671 12.0863H150.698C151.36 12.0863 151.726 12.8492 151.31 13.3662Z" fill="url(#paint23_linear_1387_1060)"/>
<path d="M105.142 12.0927C105.489 12.0927 105.792 12.3196 105.892 12.6475L109.505 24.5259H109.663L113.503 12.6349C113.61 12.3133 113.907 12.0927 114.247 12.0927H115.18C115.521 12.0927 115.823 12.3133 115.924 12.6349L119.764 24.5259H119.922L123.535 12.6475C123.636 12.3196 123.938 12.0927 124.285 12.0927H125.666C126.196 12.0927 126.574 12.6097 126.41 13.114L121.498 28.4665C121.397 28.788 121.095 29.0087 120.754 29.0087H118.995C118.655 29.0087 118.358 28.788 118.251 28.4665L114.72 17.6851H114.562L111.031 28.4665C110.924 28.788 110.628 29.0087 110.287 29.0087H108.528C108.188 29.0087 107.885 28.788 107.784 28.4665L102.872 13.114C102.708 12.6097 103.087 12.0927 103.616 12.0927H105.148H105.142Z" fill="url(#paint24_linear_1387_1060)"/>
<path d="M131.435 10.8702C132.394 10.8702 133.144 11.5953 133.144 12.4275C133.144 13.2598 132.394 13.9533 131.435 13.9533C130.477 13.9533 129.752 13.2787 129.752 12.4275C129.752 11.5764 130.477 10.8702 131.435 10.8702Z" fill="url(#paint25_linear_1387_1060)"/>
<path d="M132.009 16.4945H130.893C130.465 16.4945 130.117 16.8417 130.117 17.27V28.2342C130.117 28.6625 130.465 29.0097 130.893 29.0097H132.009C132.437 29.0097 132.785 28.6625 132.785 28.2342V17.27C132.785 16.8417 132.437 16.4945 132.009 16.4945Z" fill="url(#paint26_linear_1387_1060)"/>
<path d="M151.31 13.3662L143.706 22.7416C145.049 24.4061 146.398 26.0643 147.741 27.7287C148.157 28.2394 147.792 29.0086 147.13 29.0086H146.102C145.862 29.0086 145.641 28.9015 145.49 28.7186L142.18 24.633L138.869 28.7186C138.718 28.9015 138.497 29.0086 138.258 29.0086H137.23C136.568 29.0086 136.209 28.2457 136.618 27.7287C137.962 26.0643 139.305 24.4061 140.648 22.7416C139.305 21.0834 137.961 19.4252 136.625 17.7733C136.209 17.2626 136.574 16.4934 137.236 16.4934H138.264C138.497 16.4934 138.724 16.6006 138.876 16.7834C139.979 18.1453 141.076 19.5009 142.18 20.8627C144.475 18.0318 146.764 15.2072 149.059 12.3763C149.21 12.1935 149.431 12.0863 149.671 12.0863H150.698C151.36 12.0863 151.726 12.8492 151.31 13.3662Z" fill="url(#paint27_linear_1387_1060)"/>
<path d="M154.803 25.4028C155.957 25.4028 156.859 26.254 156.859 27.2817C156.859 28.3094 155.957 29.129 154.803 29.129C153.649 29.129 152.773 28.3094 152.773 27.2817C152.773 26.254 153.649 25.4028 154.803 25.4028Z" fill="url(#paint28_linear_1387_1060)"/>
<path d="M161.683 18.1958C161.525 17.8238 161.676 17.3824 162.036 17.1996C163.272 16.5817 165.188 15.9386 167.339 15.9386C170.163 15.9386 173.013 16.8717 173.013 19.6144V26.6065C173.013 26.9974 173.032 27.4829 173.108 27.962C173.184 28.4412 172.818 28.8636 172.339 28.8636H171.248C170.876 28.8636 170.554 28.6051 170.479 28.2395C170.479 28.2395 170.479 28.2268 170.479 28.2205C170.403 27.8296 169.949 27.6468 169.627 27.8738C168.7 28.5358 167.452 29.1158 165.579 29.1158C162.597 29.1158 160.655 27.3568 160.655 24.8159C160.655 22.5903 162.704 20.7997 166.431 20.7997C167.805 20.7997 169.463 21.1086 170.34 21.758V20.3835C170.34 18.8578 168.991 18.2084 167.206 18.2084C165.686 18.2084 164.104 18.7632 163.063 19.2991C162.66 19.5072 162.162 19.3306 161.985 18.9145L161.676 18.1831L161.683 18.1958ZM170.346 24.57C170.346 24.0656 170.037 23.6243 169.577 23.4288C168.896 23.1451 167.944 22.9118 166.878 22.9118C164.261 22.9118 163.353 23.7441 163.353 24.8285C163.353 25.9949 164.362 26.9028 166.153 26.9028C167.944 26.9028 169.224 26.0706 169.898 25.5283C170.189 25.2951 170.352 24.9483 170.352 24.5763L170.346 24.57Z" fill="url(#paint29_linear_1387_1060)"/>
<path d="M178.115 10.9888C179.073 10.9888 179.823 11.7138 179.823 12.5461C179.823 13.3783 179.073 14.0719 178.115 14.0719C177.156 14.0719 176.431 13.3972 176.431 12.5461C176.431 11.6949 177.156 10.9888 178.115 10.9888Z" fill="url(#paint30_linear_1387_1060)"/>
<path d="M178.683 16.6133H177.579C177.147 16.6133 176.797 16.9633 176.797 17.3951V28.3467C176.797 28.7785 177.147 29.1285 177.579 29.1285H178.683C179.114 29.1285 179.465 28.7785 179.465 28.3467V17.3951C179.465 16.9633 179.114 16.6133 178.683 16.6133Z" fill="url(#paint31_linear_1387_1060)"/>
<defs>
<linearGradient id="paint0_linear_1387_1060" x1="2.34273" y1="9.61875" x2="31.3142" y2="29.4088" gradientUnits="userSpaceOnUse">
<stop stop-color="#0ACD95"/>
<stop offset="1" stop-color="#6940F2"/>
</linearGradient>
<linearGradient id="paint1_linear_1387_1060" x1="45.0587" y1="19.9984" x2="179.824" y2="19.9984" gradientUnits="userSpaceOnUse">
<stop offset="0.4" stop-color="#0ACD95"/>
<stop offset="0.51" stop-color="#17B8A2"/>
<stop offset="0.73" stop-color="#3A85C4"/>
<stop offset="1" stop-color="#6940F2"/>
</linearGradient>
<linearGradient id="paint2_linear_1387_1060" x1="45.0593" y1="19.9987" x2="179.824" y2="19.9987" gradientUnits="userSpaceOnUse">
<stop offset="0.4" stop-color="#0ACD95"/>
<stop offset="0.51" stop-color="#17B8A2"/>
<stop offset="0.73" stop-color="#3A85C4"/>
<stop offset="1" stop-color="#6940F2"/>
</linearGradient>
<linearGradient id="paint3_linear_1387_1060" x1="45.0581" y1="19.9994" x2="179.823" y2="19.9994" gradientUnits="userSpaceOnUse">
<stop offset="0.4" stop-color="#0ACD95"/>
<stop offset="0.51" stop-color="#17B8A2"/>
<stop offset="0.73" stop-color="#3A85C4"/>
<stop offset="1" stop-color="#6940F2"/>
</linearGradient>
<linearGradient id="paint4_linear_1387_1060" x1="45.0581" y1="20.0001" x2="179.823" y2="20.0001" gradientUnits="userSpaceOnUse">
<stop offset="0.4" stop-color="#0ACD95"/>
<stop offset="0.51" stop-color="#17B8A2"/>
<stop offset="0.73" stop-color="#3A85C4"/>
<stop offset="1" stop-color="#6940F2"/>
</linearGradient>
<linearGradient id="paint5_linear_1387_1060" x1="45.0581" y1="19.998" x2="179.823" y2="19.998" gradientUnits="userSpaceOnUse">
<stop offset="0.4" stop-color="#0ACD95"/>
<stop offset="0.51" stop-color="#17B8A2"/>
<stop offset="0.73" stop-color="#3A85C4"/>
<stop offset="1" stop-color="#6940F2"/>
</linearGradient>
<linearGradient id="paint6_linear_1387_1060" x1="45.0587" y1="19.9984" x2="179.824" y2="19.9984" gradientUnits="userSpaceOnUse">
<stop offset="0.4" stop-color="#0ACD95"/>
<stop offset="0.51" stop-color="#17B8A2"/>
<stop offset="0.73" stop-color="#3A85C4"/>
<stop offset="1" stop-color="#6940F2"/>
</linearGradient>
<linearGradient id="paint7_linear_1387_1060" x1="45.0593" y1="19.9987" x2="179.824" y2="19.9987" gradientUnits="userSpaceOnUse">
<stop offset="0.4" stop-color="#0ACD95"/>
<stop offset="0.51" stop-color="#17B8A2"/>
<stop offset="0.73" stop-color="#3A85C4"/>
<stop offset="1" stop-color="#6940F2"/>
</linearGradient>
<linearGradient id="paint8_linear_1387_1060" x1="45.0581" y1="19.9994" x2="179.823" y2="19.9994" gradientUnits="userSpaceOnUse">
<stop offset="0.4" stop-color="#0ACD95"/>
<stop offset="0.51" stop-color="#17B8A2"/>
<stop offset="0.73" stop-color="#3A85C4"/>
<stop offset="1" stop-color="#6940F2"/>
</linearGradient>
<linearGradient id="paint9_linear_1387_1060" x1="45.0581" y1="20.0001" x2="179.823" y2="20.0001" gradientUnits="userSpaceOnUse">
<stop offset="0.4" stop-color="#0ACD95"/>
<stop offset="0.51" stop-color="#17B8A2"/>
<stop offset="0.73" stop-color="#3A85C4"/>
<stop offset="1" stop-color="#6940F2"/>
</linearGradient>
<linearGradient id="paint10_linear_1387_1060" x1="45.0581" y1="19.998" x2="179.823" y2="19.998" gradientUnits="userSpaceOnUse">
<stop offset="0.4" stop-color="#0ACD95"/>
<stop offset="0.51" stop-color="#17B8A2"/>
<stop offset="0.73" stop-color="#3A85C4"/>
<stop offset="1" stop-color="#6940F2"/>
</linearGradient>
<linearGradient id="paint11_linear_1387_1060" x1="45.0587" y1="19.9984" x2="179.824" y2="19.9984" gradientUnits="userSpaceOnUse">
<stop offset="0.4" stop-color="#0ACD95"/>
<stop offset="0.51" stop-color="#17B8A2"/>
<stop offset="0.73" stop-color="#3A85C4"/>
<stop offset="1" stop-color="#6940F2"/>
</linearGradient>
<linearGradient id="paint12_linear_1387_1060" x1="45.0593" y1="19.9987" x2="179.824" y2="19.9987" gradientUnits="userSpaceOnUse">
<stop offset="0.4" stop-color="#0ACD95"/>
<stop offset="0.51" stop-color="#17B8A2"/>
<stop offset="0.73" stop-color="#3A85C4"/>
<stop offset="1" stop-color="#6940F2"/>
</linearGradient>
<linearGradient id="paint13_linear_1387_1060" x1="45.0581" y1="19.9994" x2="179.823" y2="19.9994" gradientUnits="userSpaceOnUse">
<stop offset="0.4" stop-color="#0ACD95"/>
<stop offset="0.51" stop-color="#17B8A2"/>
<stop offset="0.73" stop-color="#3A85C4"/>
<stop offset="1" stop-color="#6940F2"/>
</linearGradient>
<linearGradient id="paint14_linear_1387_1060" x1="45.0581" y1="20.0001" x2="179.823" y2="20.0001" gradientUnits="userSpaceOnUse">
<stop offset="0.4" stop-color="#0ACD95"/>
<stop offset="0.51" stop-color="#17B8A2"/>
<stop offset="0.73" stop-color="#3A85C4"/>
<stop offset="1" stop-color="#6940F2"/>
</linearGradient>
<linearGradient id="paint15_linear_1387_1060" x1="45.0581" y1="19.998" x2="179.823" y2="19.998" gradientUnits="userSpaceOnUse">
<stop offset="0.4" stop-color="#0ACD95"/>
<stop offset="0.51" stop-color="#17B8A2"/>
<stop offset="0.73" stop-color="#3A85C4"/>
<stop offset="1" stop-color="#6940F2"/>
</linearGradient>
<linearGradient id="paint16_linear_1387_1060" x1="45.0581" y1="19.999" x2="179.823" y2="19.999" gradientUnits="userSpaceOnUse">
<stop offset="0.4" stop-color="#0ACD95"/>
<stop offset="0.51" stop-color="#17B8A2"/>
<stop offset="0.73" stop-color="#3A85C4"/>
<stop offset="1" stop-color="#6940F2"/>
</linearGradient>
<linearGradient id="paint17_linear_1387_1060" x1="45.0582" y1="19.9997" x2="179.823" y2="19.9997" gradientUnits="userSpaceOnUse">
<stop offset="0.4" stop-color="#0ACD95"/>
<stop offset="0.51" stop-color="#17B8A2"/>
<stop offset="0.73" stop-color="#3A85C4"/>
<stop offset="1" stop-color="#6940F2"/>
</linearGradient>
<linearGradient id="paint18_linear_1387_1060" x1="45.0579" y1="20" x2="179.823" y2="20" gradientUnits="userSpaceOnUse">
<stop offset="0.4" stop-color="#0ACD95"/>
<stop offset="0.51" stop-color="#17B8A2"/>
<stop offset="0.73" stop-color="#3A85C4"/>
<stop offset="1" stop-color="#6940F2"/>
</linearGradient>
<linearGradient id="paint19_linear_1387_1060" x1="45.0579" y1="19.9989" x2="179.823" y2="19.9989" gradientUnits="userSpaceOnUse">
<stop offset="0.4" stop-color="#0ACD95"/>
<stop offset="0.51" stop-color="#17B8A2"/>
<stop offset="0.73" stop-color="#3A85C4"/>
<stop offset="1" stop-color="#6940F2"/>
</linearGradient>
<linearGradient id="paint20_linear_1387_1060" x1="45.0581" y1="19.999" x2="179.823" y2="19.999" gradientUnits="userSpaceOnUse">
<stop offset="0.4" stop-color="#0ACD95"/>
<stop offset="0.51" stop-color="#17B8A2"/>
<stop offset="0.73" stop-color="#3A85C4"/>
<stop offset="1" stop-color="#6940F2"/>
</linearGradient>
<linearGradient id="paint21_linear_1387_1060" x1="45.0582" y1="19.9997" x2="179.823" y2="19.9997" gradientUnits="userSpaceOnUse">
<stop offset="0.4" stop-color="#0ACD95"/>
<stop offset="0.51" stop-color="#17B8A2"/>
<stop offset="0.73" stop-color="#3A85C4"/>
<stop offset="1" stop-color="#6940F2"/>
</linearGradient>
<linearGradient id="paint22_linear_1387_1060" x1="45.0579" y1="20" x2="179.823" y2="20" gradientUnits="userSpaceOnUse">
<stop offset="0.4" stop-color="#0ACD95"/>
<stop offset="0.51" stop-color="#17B8A2"/>
<stop offset="0.73" stop-color="#3A85C4"/>
<stop offset="1" stop-color="#6940F2"/>
</linearGradient>
<linearGradient id="paint23_linear_1387_1060" x1="45.0579" y1="19.9989" x2="179.823" y2="19.9989" gradientUnits="userSpaceOnUse">
<stop offset="0.4" stop-color="#0ACD95"/>
<stop offset="0.51" stop-color="#17B8A2"/>
<stop offset="0.73" stop-color="#3A85C4"/>
<stop offset="1" stop-color="#6940F2"/>
</linearGradient>
<linearGradient id="paint24_linear_1387_1060" x1="45.0581" y1="19.999" x2="179.823" y2="19.999" gradientUnits="userSpaceOnUse">
<stop offset="0.4" stop-color="#0ACD95"/>
<stop offset="0.51" stop-color="#17B8A2"/>
<stop offset="0.73" stop-color="#3A85C4"/>
<stop offset="1" stop-color="#6940F2"/>
</linearGradient>
<linearGradient id="paint25_linear_1387_1060" x1="45.0582" y1="19.9997" x2="179.823" y2="19.9997" gradientUnits="userSpaceOnUse">
<stop offset="0.4" stop-color="#0ACD95"/>
<stop offset="0.51" stop-color="#17B8A2"/>
<stop offset="0.73" stop-color="#3A85C4"/>
<stop offset="1" stop-color="#6940F2"/>
</linearGradient>
<linearGradient id="paint26_linear_1387_1060" x1="45.0579" y1="20" x2="179.823" y2="20" gradientUnits="userSpaceOnUse">
<stop offset="0.4" stop-color="#0ACD95"/>
<stop offset="0.51" stop-color="#17B8A2"/>
<stop offset="0.73" stop-color="#3A85C4"/>
<stop offset="1" stop-color="#6940F2"/>
</linearGradient>
<linearGradient id="paint27_linear_1387_1060" x1="45.0579" y1="19.9989" x2="179.823" y2="19.9989" gradientUnits="userSpaceOnUse">
<stop offset="0.4" stop-color="#0ACD95"/>
<stop offset="0.51" stop-color="#17B8A2"/>
<stop offset="0.73" stop-color="#3A85C4"/>
<stop offset="1" stop-color="#6940F2"/>
</linearGradient>
<linearGradient id="paint28_linear_1387_1060" x1="45.0578" y1="19.9995" x2="179.823" y2="19.9995" gradientUnits="userSpaceOnUse">
<stop offset="0.4" stop-color="#0ACD95"/>
<stop offset="0.51" stop-color="#17B8A2"/>
<stop offset="0.73" stop-color="#3A85C4"/>
<stop offset="1" stop-color="#6940F2"/>
</linearGradient>
<linearGradient id="paint29_linear_1387_1060" x1="45.0581" y1="19.999" x2="179.823" y2="19.999" gradientUnits="userSpaceOnUse">
<stop offset="0.4" stop-color="#0ACD95"/>
<stop offset="0.51" stop-color="#17B8A2"/>
<stop offset="0.73" stop-color="#3A85C4"/>
<stop offset="1" stop-color="#6940F2"/>
</linearGradient>
<linearGradient id="paint30_linear_1387_1060" x1="45.0583" y1="19.9985" x2="179.823" y2="19.9985" gradientUnits="userSpaceOnUse">
<stop offset="0.4" stop-color="#0ACD95"/>
<stop offset="0.51" stop-color="#17B8A2"/>
<stop offset="0.73" stop-color="#3A85C4"/>
<stop offset="1" stop-color="#6940F2"/>
</linearGradient>
<linearGradient id="paint31_linear_1387_1060" x1="45.0595" y1="19.999" x2="179.824" y2="19.999" gradientUnits="userSpaceOnUse">
<stop offset="0.4" stop-color="#0ACD95"/>
<stop offset="0.51" stop-color="#17B8A2"/>
<stop offset="0.73" stop-color="#3A85C4"/>
<stop offset="1" stop-color="#6940F2"/>
</linearGradient>
</defs>
</svg>
